<?xml version="1.0" standalone="no"?><!-- Generator: Gravit.io --><svg xmlns="http://www.w3.org/2000/svg" xmlns:xlink="http://www.w3.org/1999/xlink" style="isolation:isolate" viewBox="24.5 88.5 967.5 335" width="967.5" height="335"><g style="isolation:isolate" id="Project Logo"><g style="isolation:isolate" id="Icon"><path d=" M 32 256 C 32 167.694 103.694 96 192 96 C 280.306 96 352 167.694 352 256 C 352 344.306 280.306 416 192 416 C 103.694 416 32 344.306 32 256 Z " fill="rgb(255,255,255)" vector-effect="non-scaling-stroke" stroke-width="15" stroke="rgb(206,176,150)" stroke-linejoin="miter" stroke-linecap="square" stroke-miterlimit="3"/><path d=" M 104.125 282.063 C 104.125 244.601 134.539 214.188 172 214.188 C 209.461 214.188 239.875 244.601 239.875 282.063 C 239.875 319.524 209.461 349.938 172 349.938 C 134.539 349.938 104.125 319.524 104.125 282.063 Z " fill="none" vector-effect="non-scaling-stroke" stroke-width="15" stroke="rgb(115,78,9)" stroke-linejoin="miter" stroke-linecap="square" stroke-miterlimit="3"/><path d=" M 144.887 219.838 C 149.759 187.157 177.972 162.063 212 162.063 C 249.461 162.063 279.875 192.476 279.875 229.938 C 279.875 257.76 263.098 281.696 239.113 292.162 C 239.62 288.87 239.875 285.496 239.875 282.063 C 239.875 244.601 209.461 214.188 172 214.188 C 162.362 214.188 153.19 216.201 144.887 219.838 Z " fill="none" vector-effect="non-scaling-stroke" stroke-width="15" stroke="rgb(115,78,9)" stroke-linejoin="miter" stroke-linecap="square" stroke-miterlimit="3"/></g><g transform="matrix(1,0,0,1,384,96)"><text transform="matrix(1,0,0,1,0,149.639)" style="font-family:&quot;Open Sans&quot;;font-weight:700;font-size:140px;font-style:normal;letter-spacing:16;fill:#734e09;stroke:none;">QUARK</text><text transform="matrix(1,0,0,1,0,297.539)" style="font-family:&quot;Open Sans&quot;;font-weight:300;font-size:100px;font-style:normal;letter-spacing:7;fill:#ceb096;stroke:none;">GUI Toolkit</text></g></g></svg>